# File created by Blade
# Date/Time:  Thu Jan 22 16:10:14 2015
# Frame Rate: 120.000 fps
#------------------------------------------------------
:FULLY-SPECIFIED
:DEGREES
1668
root 9.165040 30.549422 2.466383 6.540758 8.955058 8.480910
RightUpLeg 6.697473 -23.005588 -45.265271
RightLeg -6.644334 -0.000000 0.000000
RightFoot 0.285920 -29.055810 41.004141
RightToeBase 13.512843 -0.000000 -0.000000
LeftUpLeg -40.145867 28.847646 -2.782367
LeftLeg 69.139617 -0.000000 -0.000000
LeftFoot -32.509113 3.538989 -22.745017
LeftToeBase 6.923885 -0.000000 -0.000000
Spine 16.611394 -7.613278 -6.542038
RightShoulder -6.208338 -16.651950 -21.775771
RightArm 11.249664 18.437608 48.552479
RightForeArm 1.002025 -0.000000 56.190661
RightHand 7.459113 -0.000000 -19.041291
RightHandThumb1 -24.326973 -0.000000 -32.862282
LeftShoulder -26.679576 33.066088 12.440928
LeftArm 47.301515 -42.981106 -63.499055
LeftForeArm 32.324297 0.000000 12.456540
LeftHand -21.589869 -0.000000 1.019583
LeftHandThumb1 -26.253704 0.000000 33.147579
Head -10.064066 5.507937 0.019763
1669
root 9.272956 30.461916 2.473082 6.650278 8.850476 8.406312
RightUpLeg 6.548624 -23.019084 -45.364258
RightLeg -6.625285 -0.000000 0.000000
RightFoot 0.342915 -29.051525 41.144125
RightToeBase 13.526531 -0.000000 -0.000000
LeftUpLeg -40.572493 28.946380 -2.961447
LeftLeg 69.801415 -0.000000 -0.000000
LeftFoot -32.902867 3.521451 -22.773553
LeftToeBase 7.024110 -0.000000 -0.000000
Spine 16.704332 -7.530083 -6.427125
RightShoulder -6.177097 -16.861605 -21.578250
RightArm 11.622852 17.601853 48.979292
RightForeArm 0.527188 0.000000 56.868265
RightHand 7.526531 0.000000 -18.974635
RightHandThumb1 -24.326973 -0.000000 -32.862282
LeftShoulder -26.658700 33.037311 12.374356
LeftArm 47.343549 -42.846237 -63.640904
LeftForeArm 32.356719 -0.000000 12.508255
LeftHand -21.688798 -0.000000 1.035274
LeftHandThumb1 -26.253704 0.000000 33.147579
Head -10.221857 5.485822 -0.037150
1670
root 9.380597 30.373941 2.478009 6.768571 8.767706 8.315813
RightUpLeg 6.405400 -23.005325 -45.446674
RightLeg -6.601699 -0.000000 0.000000
RightFoot 0.359393 -29.067651 41.346355
RightToeBase 13.551430 -0.000000 -0.000000
LeftUpLeg -41.013961 28.980141 -3.121959
LeftLeg 70.465480 -0.000000 -0.000000
LeftFoot -33.245775 3.582624 -22.711923
LeftToeBase 6.807157 -0.000000 -0.000000
Spine 16.795895 -7.497899 -6.280979
RightShoulder -6.141429 -17.117232 -21.383598
RightArm 12.088708 16.807084 49.400723
RightForeArm -0.050754 0.000000 57.487575
RightHand 7.559846 -0.000000 -18.855378
RightHandThumb1 -24.326973 -0.000000 -32.862282
LeftShoulder -26.672732 33.077834 12.248189
LeftArm 47.464177 -42.763263 -63.869904
LeftForeArm 32.406572 -0.000000 12.548581
LeftHand -21.564651 -0.000000 1.040518
LeftHandThumb1 -26.253704 0.000000 33.147579
Head -10.383758 5.413484 -0.162482
1671
root 9.489058 30.284856 2.481205 6.899800 8.665040 8.240509
RightUpLeg 6.237016 -22.998607 -45.537299
RightLeg -6.587151 -0.000000 0.000000
RightFoot 0.390145 -29.099226 41.515814
RightToeBase 13.591973 -0.000000 -0.000000
LeftUpLeg -41.461173 29.035102 -3.303183
LeftLeg 71.121365 -0.000000 -0.000000
LeftFoot -33.667326 3.507892 -22.807433
LeftToeBase 6.903208 -0.000000 -0.000000
Spine 16.875405 -7.438193 -6.166209
RightShoulder -6.115718 -17.378537 -21.145002
RightArm 12.586259 16.012552 49.774517
RightForeArm -0.605177 -0.000000 58.064620
RightHand 7.462340 0.000000 -18.656272
RightHandThumb1 -24.326973 -0.000000 -32.862282
LeftShoulder -26.695647 33.097354 12.146662
LeftArm 47.527634 -42.606954 -63.983655
LeftForeArm 32.389717 -0.000000 12.598816
LeftHand -21.541337 0.000000 1.064936
LeftHandThumb1 -26.253704 0.000000 33.147579
Head -10.539562 5.370409 -0.203257
1672
root 9.596900 30.194772 2.486945 7.012970 8.558260 8.160756
RightUpLeg 6.077472 -22.948103 -45.630681
RightLeg -6.555241 -0.000000 0.000000
RightFoot 0.385843 -29.129053 41.721207
RightToeBase 13.589267 -0.000000 -0.000000
LeftUpLeg -41.880414 29.114999 -3.473449
LeftLeg 71.773860 -0.000000 -0.000000
LeftFoot -34.063546 3.476001 -22.797506
LeftToeBase 6.881528 -0.000000 -0.000000
Spine 16.971472 -7.402015 -6.039345
RightShoulder -6.058451 -17.598117 -20.937759
RightArm 13.084368 15.218683 50.160962
RightForeArm -1.095380 0.000000 58.579938
RightHand 7.500552 0.000000 -18.594629
RightHandThumb1 -24.326973 -0.000000 -32.862282
LeftShoulder -26.686151 33.068529 12.026864
LeftArm 47.446608 -42.473860 -64.013387
LeftForeArm 32.254606 0.000000 12.720315
LeftHand -21.579566 0.000000 1.145712
LeftHandThumb1 -26.253704 0.000000 33.147579
Head -10.709263 5.410925 -0.313107
1673
root 9.702509 30.103879 2.493153 7.117681 8.506271 8.027249
RightUpLeg 5.980902 -22.999197 -45.677041
RightLeg -6.569430 -0.000000 0.000000
RightFoot 0.469378 -29.141425 41.849707
RightToeBase 13.621202 -0.000000 -0.000000
LeftUpLeg -42.320354 29.128070 -3.578589
LeftLeg 72.463998 -0.000000 -0.000000
LeftFoot -34.447429 3.441033 -22.816028
LeftToeBase 6.834936 -0.000000 -0.000000
Spine 17.073098 -7.411470 -5.824398
RightShoulder -5.966715 -17.771166 -20.763487
RightArm 13.517765 14.457947 50.550949
RightForeArm -1.656179 0.000000 59.061175
RightHand 7.462205 0.000000 -18.450545
RightHandThumb1 -24.326973 -0.000000 -32.862282
LeftShoulder -26.702735 33.109749 11.853558
LeftArm 47.584438 -42.425972 -64.273545
LeftForeArm 32.354574 -0.000000 12.804812
LeftHand -21.568634 0.000000 1.106311
LeftHandThumb1 -26.253704 0.000000 33.147579
Head -10.885999 5.365952 -0.468272
